<svg xmlns="http://www.w3.org/2000/svg" width="1000" height="1000" fill="none" viewBox="0 0 1000 1000"><path fill="#fff" stroke="#fff" d="M887.381 969.26c-8.735-56.977-48.879-105.048-75.732-131.404l.549-.815c9.358 4.047 21.759 8.83 38.249 11.299-2.792-3.979-9.723-12.356-17.353-21.182-8.281-9.578-17.343-19.64-22.731-25.095-2.576-2.51-4.531-5.48-5.84-7.812a42 42 0 0 1-1.484-2.905 30 30 0 0 1-.496-1.141l-.006-.017-.003-.005-.403-1.031 1.04.378c30.426 11.057 85.881 24.674 122.376 23.982-86.18-65.628-170.816-172.104-199.948-211.213l-.944-1.268 1.501.494c4.843 1.593 12.074 3.422 18.097 4.686 3.011.632 5.708 1.121 7.647 1.368.934.119 1.674.179 2.182.177-37.901-40.104-134.111-160.663-159.226-193.339-62.812-81.723-119.676-111.957-160.844-130.761-20.562-9.391-37.326-15.975-48.91-24.716-5.81-4.383-10.343-9.324-13.42-15.457C368.605 237.352 367 230.06 367 221c0-21.091 11.942-38.253 30.514-52.096 18.568-13.839 43.819-24.407 70.594-32.321 52.681-15.57 111.409-20.91 137.152-20.603-22.09-21.777-40.536-37.377-68.681-47.583C508.039 58.048 469.485 53.23 407 53.23h-.126l-.111-.06c-10.812-5.841-18.334-11.717-30.856-16.184C363.416 32.53 345.97 29.5 315.5 29.5c-68.742 0-135.481 34.81-165.765 87.828 7.528-3.748 15.268-7.352 25.242-7.827l1.218-.059-.828.897c-8.962 9.709-28.439 37.92-46.252 67.233-8.902 14.65-17.38 29.559-23.911 42.551-6.13 12.195-10.52 22.65-11.96 29.606 1.782-1.502 3.612-3.122 5.503-4.791 2.265-2 4.615-4.068 7.061-6.075 4.889-4.011 10.181-7.795 15.993-10.322l1.35-.587-.713 1.288c-26.857 48.475-48.523 121.945-48.932 174.257 4.397-5.828 8.48-11.54 12.393-17.042 4.18-5.875 8.173-11.512 12.155-16.779l1.082-1.432-.186 1.784c-10.05 96.714 8.765 169.184 62.207 221.945-1.668-8.18-3.493-24.037-4.718-39.372-.656-8.225-1.142-16.312-1.337-23.002-.195-6.671-.105-12.007.407-14.695l.36-1.893.606 1.83c21.413 64.771 55.061 132.551 108.523 186.935-.019-21.01-.525-27.447-1.993-38.211l-.226-1.65 1.097 1.254c27.637 31.586 75.225 77.749 118.212 100.042-11.952-18.88-19.672-35.43-24.068-50.573l-.458-1.575 1.258 1.051c37.529 31.352 70.268 56.927 95.692 105.85.285-25.048 5.85-43.851 14.133-56.49C477.152 748.493 488.545 742 500 742c6.664 0 14.421 3.836 22.44 9.344 8.039 5.521 16.436 12.79 24.39 19.78 16.568 14.56 34.106 41.626 41.627 58.674 9.177 20.802 18.088 30.509 26.882 38.388 1.396-2.953 3.016-7.354 7.25-13.47l.394-.571.417.555c2.233 2.977 4.956 6.795 7.979 11.005 3.025 4.213 6.354 8.825 9.804 13.401 6.704 8.894 13.839 17.621 20.073 23.028.937-2.858 2.004-6.331 3.276-9.687 1.379-3.636 3.027-7.196 5.077-9.759l.495-.62.346.714c1.335 2.758 4.184 6.807 7.959 11.463 3.768 4.646 8.435 9.867 13.379 14.961 4.945 5.094 10.163 10.056 15.033 14.185 4.566 3.87 8.805 6.991 12.215 8.808.177-3.806.555-8.331 1.056-12.437.533-4.375 1.208-8.329 1.935-10.426l.312-.898.563.766c.666.905 2.122 2.367 4.232 4.267 2.099 1.89 4.815 4.187 7.973 6.756 6.317 5.136 14.392 11.348 22.812 17.546 8.42 6.199 17.181 12.382 24.872 17.459 7.131 4.708 13.316 8.448 17.453 10.379-1.866-7.056-3.726-16.186-5.154-24.427-1.496-8.633-2.528-16.339-2.59-19.674l-.019-1.011.815.598c24.424 17.925 52.99 34.08 94.085 48.163Z"/></svg>