<svg xmlns="http://www.w3.org/2000/svg" width="1231" height="440" fill="none" viewBox="0 0 1231 440"><path fill="#fff" d="M62.37 122.715V230.9h79.31q7.7 0 9.625-2.31 2.31-2.31 2.31-9.625V134.65q0-7.7-2.31-9.625-1.925-2.31-9.625-2.31zm0 130.9v85.855H0V100h185.185q30.415 0 30.415 30.415V223.2q0 30.415-30.415 30.415H166.32l54.285 85.855h-64.68l-51.59-85.855zM323.022 269.4h91.63l-45.815-131.67zm115.885 70.07-16.555-47.355H314.937l-16.555 47.355h-60.445L329.567 100h78.54l92.015 239.47zM682.818 100h62.37l-90.09 239.47h-76.23L489.163 100h62.755l65.065 198.275zM841.484 316.755h124.355v22.715h-188.65V100h183.645v22.715h-119.35v82.775h103.565v22.715H841.484zM1173.39 100h57.37v239.47h-55.06l-108.18-179.025V339.47h-57.37V100h56.21l107.03 178.64z"/></svg>