<svg xmlns="http://www.w3.org/2000/svg" width="2559" height="1014" fill="none" viewBox="0 0 2559 1014"><g fill="#fff" clip-path="url(#a)"><path d="M1312.27 548.464V664h-67.73V563.902l-29.88-33.366H1106.1V664h-67.73V315.4h218.62l53.29 53.784V474.76l-33.87 34.362zM1106.1 474.76h120.02l17.43-17.43v-67.728l-17.43-17.43H1106.1zm364.93-159.36h61.76L1660.27 664h-68.72l-28.39-77.19h-122.5L1412.27 664h-68.72zm77.19 215.634-46.31-132.468h-1l-44.82 132.468zm76.46-215.634h69.72l86.65 267.924h1L1868.7 315.4h69.72l-124 348.6h-65.74zm350.29 0h251.99v57.27H2042.7v88.146h169.81v56.274H2042.7v89.64h184.26V664h-251.99zm301.01 0h60.76l155.37 236.55h1V315.4h65.24V664h-60.76l-155.37-236.052h-1V664h-65.24z"/><path fill-rule="evenodd" d="M602 889.5c5.447 11.251 35.199 42.894 49.5 50 .317-7.887 1.585-19.419 3-23.5 5.599 7.616 61.893 49.853 78.5 57-3.902-14.321-7.877-38.417-8-45 24.618 18.068 53.437 34.338 95 48.5-8.5-57.5-49-106-76-132.5 9.589 4.147 22.386 9.075 39.5 11.5-4.5-7-29.981-36.355-40.781-47.288C737.653 803.279 735 796.5 735 796.5c30.851 11.211 87.433 25.065 123.986 23.979C772.474 754.971 687.256 647.776 658 608.5c9.733 3.2 29 7.333 29 6-37.486-39.479-134.507-161.049-159.747-193.888C401.5 257 299.5 299.5 299.5 227.5c0-83.5 189-105.5 239-104.5-45-44.5-74.5-63.77-199.5-63.77-21.467-11.6-30.5-23.73-91.5-23.73-69.5 0-137 35.5-167 89.5 8-4 16-8 26.5-8.5-18 19.5-78 113-82.5 141 8.5-7 18-17 29.5-22-27.147 49-49 123.5-49 176 9.5-12.5 17.5-24.5 25.453-35.021C20.319 474 39.5 547 94 600c-3.5-15-8-68-6-78.5 21.542 65.162 55.468 133.397 109.5 188 0-22-.5-28.5-2-39.5 28 32 76.5 79 120 101-12.5-19.5-20.5-36.5-25-52 38 31.745 71 57.5 96.5 107.5 0-52 22.5-77.5 45-77.5 13 0 30.587 15.015 46.5 29 16.5 14.5 34 41.5 41.5 58.5 9.382 21.266 18.5 31 27.5 39 1.5-3 3-7.5 7.5-14 8.914 11.888 25.674 37.199 38.5 48 2-6 4.5-15 8.5-20" clip-rule="evenodd"/></g><defs><clipPath id="a"><path fill="#fff" d="M0 0h2558.67v1013.33H0z"/></clipPath></defs></svg>