<svg xmlns="http://www.w3.org/2000/svg" width="1231" height="240" fill="none" viewBox="0 0 1231 240"><path fill="#fff" d="M62.37 22.715V130.9h79.31q7.7 0 9.625-2.31 2.31-2.31 2.31-9.625V34.65q0-7.7-2.31-9.625-1.925-2.31-9.625-2.31zm0 130.9v85.855H0V0h185.185Q215.6 0 215.6 30.415V123.2q0 30.415-30.415 30.415H166.32l54.285 85.855h-64.68l-51.59-85.855zM323.022 169.4h91.63L368.837 37.73zm115.885 70.07-16.555-47.355H314.937l-16.555 47.355h-60.445L329.567 0h78.54l92.015 239.47zM682.818 0h62.37l-90.09 239.47h-76.23L489.163 0h62.755l65.065 198.275zM841.484 216.755h124.355v22.715h-188.65V0h183.645v22.715h-119.35v82.775h103.565v22.715H841.484zM1173.39 0h57.37v239.47h-55.06L1067.52 60.445V239.47h-57.37V0h56.21l107.03 178.64z"/></svg>