<svg width="1231" height="240" viewBox="0 0 1231 240" fill="none" xmlns="http://www.w3.org/2000/svg">
<path d="M62.37 22.715V130.9H141.68C146.813 130.9 150.022 130.13 151.305 128.59C152.845 127.05 153.615 123.842 153.615 118.965V34.65C153.615 29.5167 152.845 26.3083 151.305 25.025C150.022 23.485 146.813 22.715 141.68 22.715H62.37ZM62.37 153.615V239.47H0V0H185.185C205.462 0 215.6 10.1383 215.6 30.415V123.2C215.6 143.477 205.462 153.615 185.185 153.615H166.32L220.605 239.47H155.925L104.335 153.615H62.37Z" fill="white"/>
<path d="M323.022 169.4H414.652L368.837 37.73L323.022 169.4ZM438.907 239.47L422.352 192.115H314.937L298.382 239.47H237.937L329.567 0H408.107L500.122 239.47H438.907Z" fill="white"/>
<path d="M682.818 0H745.188L655.098 239.47H578.868L489.163 0H551.918L616.983 198.275L682.818 0Z" fill="white"/>
<path d="M841.484 216.755H965.839V239.47H777.189V0H960.834V22.715H841.484V105.49H945.049V128.205H841.484V216.755Z" fill="white"/>
<path d="M1173.39 0H1230.76V239.47H1175.7L1067.52 60.445V239.47H1010.15V0H1066.36L1173.39 178.64V0Z" fill="white"/>
</svg>
