<svg width="2559" height="1014" viewBox="0 0 2559 1014" fill="none" xmlns="http://www.w3.org/2000/svg">
<g clip-path="url(#clip0_2_4)">
<path d="M1312.27 548.464V664H1244.54V563.902L1214.66 530.536H1106.1V664H1038.37V315.4H1256.99L1310.28 369.184V474.76L1276.41 509.122L1312.27 548.464ZM1106.1 474.76H1226.12L1243.55 457.33V389.602L1226.12 372.172H1106.1V474.76ZM1471.03 315.4H1532.79L1660.27 664H1591.55L1563.16 586.81H1440.66L1412.27 664H1343.55L1471.03 315.4ZM1548.22 531.034L1501.91 398.566H1500.91L1456.09 531.034H1548.22ZM1624.68 315.4H1694.4L1781.05 583.324H1782.05L1868.7 315.4H1938.42L1814.42 664H1748.68L1624.68 315.4ZM1974.97 315.4H2226.96V372.67H2042.7V460.816H2212.51V517.09H2042.7V606.73H2226.96V664H1974.97V315.4ZM2275.98 315.4H2336.74L2492.11 551.95H2493.11V315.4H2558.35V664H2497.59L2342.22 427.948H2341.22V664H2275.98V315.4Z" fill="white"/>
<path fill-rule="evenodd" clip-rule="evenodd" d="M602 889.5C607.447 900.751 637.199 932.394 651.5 939.5C651.817 931.613 653.085 920.081 654.5 916C660.099 923.616 716.393 965.853 733 973C729.098 958.679 725.123 934.583 725 928C749.618 946.068 778.437 962.338 820 976.5C811.5 919 771 870.5 744 844C753.589 848.147 766.386 853.075 783.5 855.5C779 848.5 753.519 819.145 742.719 808.212C737.653 803.279 735 796.5 735 796.5C765.851 807.711 822.433 821.565 858.986 820.479C772.474 754.971 687.256 647.776 658 608.5C667.733 611.7 687 615.833 687 614.5C649.514 575.021 552.493 453.451 527.253 420.612C401.5 257 299.5 299.5 299.5 227.5C299.5 144 488.5 122 538.5 123C493.5 78.5 464 59.2308 339 59.2308C317.533 47.6308 308.5 35.5 247.5 35.5C178 35.5 110.5 71 80.5 125C88.5 121 96.5 117 107 116.5C89 136 29 229.5 24.5 257.5C33 250.5 42.5 240.5 54 235.5C26.8528 284.5 5 359 5 411.5C14.5 399 22.5 387 30.4528 376.479C20.3194 474 39.5 547 94 600C90.5 585 86 532 88 521.5C109.542 586.662 143.468 654.897 197.5 709.5C197.5 687.5 197 681 195.5 670C223.5 702 272 749 315.5 771C303 751.5 295 734.5 290.5 719C328.5 750.745 361.5 776.5 387 826.5C387 774.5 409.5 749 432 749C445 749 462.587 764.015 478.5 778C495 792.5 512.5 819.5 520 836.5C529.382 857.766 538.5 867.5 547.5 875.5C549 872.5 550.5 868 555 861.5C563.914 873.388 580.674 898.699 593.5 909.5C595.5 903.5 598 894.5 602 889.5Z" fill="white"/>
</g>
<defs>
<clipPath id="clip0_2_4">
<rect width="2558.67" height="1013.33" fill="white"/>
</clipPath>
</defs>
</svg>
