<svg width="854" height="941" viewBox="0 0 854 941" fill="none" xmlns="http://www.w3.org/2000/svg">
<path fill-rule="evenodd" clip-rule="evenodd" d="M597 854C602.447 865.251 632.199 896.894 646.5 904C646.817 896.113 648.085 884.581 649.5 880.5C655.099 888.116 711.393 930.353 728 937.5C724.098 923.179 720.123 899.083 720 892.5C744.618 910.568 773.437 926.838 815 941C806.5 883.5 766 835 739 808.5C748.589 812.647 761.386 817.575 778.5 820C774 813 748.519 783.645 737.719 772.712C732.653 767.779 730 761 730 761C760.851 772.211 817.433 786.065 853.986 784.979C767.474 719.471 682.256 612.276 653 573C662.733 576.2 682 580.333 682 579C644.514 539.521 547.493 417.951 522.253 385.112C396.5 221.5 294.5 264 294.5 192C294.5 108.5 483.5 86.5001 533.5 87.5001C488.5 43 459 23.7308 334 23.7308C312.533 12.1308 303.5 0 242.5 0C173 0 105.5 35.5 75.5 89.5C83.5 85.5 91.5 81.5 102 81C84 100.5 24 194 19.5 222C28 215 37.5 205 49 200C21.8528 249 0 323.5 0 376C9.5 363.5 17.5 351.5 25.4528 340.979C15.3194 438.5 34.5 511.5 89 564.5C85.5 549.5 81 496.5 83 486C104.542 551.162 138.468 619.397 192.5 674C192.5 652 192 645.5 190.5 634.5C218.5 666.5 267 713.5 310.5 735.5C298 716 290 699 285.5 683.5C323.5 715.245 356.5 741 382 791C382 739 404.5 713.5 427 713.5C440 713.5 457.587 728.515 473.5 742.5C490 757 507.5 784 515 801C524.382 822.266 533.5 832 542.5 840C544 837 545.5 832.5 550 826C558.914 837.888 575.674 863.199 588.5 874C590.5 868 593 859 597 854Z" fill="white"/>
<path d="M503.5 102V107H505.5V102H508V100H501V102H503.5Z" fill="white"/>
<path d="M511 107H509V100H511L513.5 103L516 100H518V107H516V103.5L513.5 106.5L511 103.5V107Z" fill="white"/>
</svg>
