<svg width="1231" height="440" viewBox="0 0 1231 440" fill="none" xmlns="http://www.w3.org/2000/svg">
<path d="M62.37 122.715V230.9H141.68C146.813 230.9 150.022 230.13 151.305 228.59C152.845 227.05 153.615 223.842 153.615 218.965V134.65C153.615 129.517 152.845 126.308 151.305 125.025C150.022 123.485 146.813 122.715 141.68 122.715H62.37ZM62.37 253.615V339.47H0V100H185.185C205.462 100 215.6 110.138 215.6 130.415V223.2C215.6 243.477 205.462 253.615 185.185 253.615H166.32L220.605 339.47H155.925L104.335 253.615H62.37Z" fill="white"/>
<path d="M323.022 269.4H414.652L368.837 137.73L323.022 269.4ZM438.907 339.47L422.352 292.115H314.937L298.382 339.47H237.937L329.567 100H408.107L500.122 339.47H438.907Z" fill="white"/>
<path d="M682.818 100H745.188L655.098 339.47H578.868L489.163 100H551.918L616.983 298.275L682.818 100Z" fill="white"/>
<path d="M841.484 316.755H965.839V339.47H777.189V100H960.834V122.715H841.484V205.49H945.049V228.205H841.484V316.755Z" fill="white"/>
<path d="M1173.39 100H1230.76V339.47H1175.7L1067.52 160.445V339.47H1010.15V100H1066.36L1173.39 278.64V100Z" fill="white"/>
</svg>
